<?xml version="1.0" standalone="no"?>
<!DOCTYPE svg PUBLIC "-//W3C//DTD SVG 20010904//EN"
 "http://www.w3.org/TR/2001/REC-SVG-20010904/DTD/svg10.dtd">
<svg version="1.0" xmlns="http://www.w3.org/2000/svg"
 width="32" height="32" viewBox="0 0 48 48"
 preserveAspectRatio="xMidYMid meet">

<g transform="translate(0.000000,48.000000) scale(0.100000,-0.100000)"
fill="#0d5ef5" stroke="none">
<path d="M87 400 c-44 -38 -48 -76 -17 -128 l21 -34 -21 -32 c-30 -49 -26 -82
14 -122 40 -40 73 -44 122 -14 l32 21 34 -21 c58 -35 118 -20 147 37 18 35 13
69 -16 103 -15 18 -22 35 -17 38 23 16 44 59 44 90 0 24 -9 42 -29 63 -37 37
-83 38 -131 5 -35 -24 -35 -24 -56 -5 -12 11 -37 22 -56 25 -29 5 -41 1 -71
-26z m101 -37 c11 -11 22 -35 25 -58 l4 -40 -41 3 c-47 5 -76 26 -76 55 0 19
2 18 30 -8 25 -24 32 -26 45 -15 14 12 13 16 -10 40 -14 14 -25 29 -25 33 0
13 28 7 48 -10z m152 9 c0 -5 -11 -19 -25 -32 -19 -18 -22 -26 -13 -37 9 -11
16 -9 39 13 34 32 50 24 28 -14 -12 -21 -24 -28 -59 -32 l-45 -5 4 40 c2 22
10 48 19 58 15 17 52 24 52 9z m-92 -143 c-17 -10 -28 -2 -21 17 4 11 8 12 20
3 11 -10 11 -14 1 -20z m-38 -56 c-4 -38 -10 -50 -32 -62 -39 -22 -46 -6 -13
29 22 23 26 33 17 42 -9 9 -19 5 -42 -17 -35 -33 -51 -26 -29 13 11 21 25 28
59 33 25 3 45 7 45 7 1 1 -2 -19 -5 -45z m153 15 c17 -20 23 -48 10 -48 -4 0
-19 11 -33 25 -24 23 -28 24 -40 10 -11 -13 -9 -20 15 -45 26 -28 27 -30 8
-30 -29 0 -50 29 -55 76 l-3 41 40 -4 c23 -3 47 -14 58 -25z"/>
</g>
</svg>
